<svg xmlns="http://www.w3.org/2000/svg" viewBox="0 0 115.77 109.85"><title>Asset 1</title><g id="Layer_2" data-name="Layer 2"><g id="Layer_1-2" data-name="Layer 1"><path d="M120.84,32.27c-12.51,1.86-13.69,3-13.69,17.92v68.62c0,14.53,1.18,15.71,13.69,17.91v2.7H72.67v-2.7c12.68-1.86,13.52-3.21,13.52-17.91v-36H39.55v36c0,14.87,1.35,15.88,13.69,17.91v2.7H5.07v-2.7c12.34-1.69,13.52-2.87,13.52-17.91V50.19c0-14.87-1.52-15.89-13.52-17.92v-2.7H53.24v2.7c-12.17,2-13.69,3-13.69,17.92V77.4H86.19V50.19c0-14.7-1.69-15.89-13.52-17.92v-2.7h48.17Z" transform="translate(-5.07 -29.57)"/></g></g></svg>